<svg width="500" height="500" viewBox="0 0 500 500" fill="none" xmlns="http://www.w3.org/2000/svg">
<g opacity="0.05">
<path d="M250 438.61C354.166 438.61 438.61 354.166 438.61 250C438.61 145.833 354.166 61.3899 250 61.3899C145.833 61.3899 61.3899 145.833 61.3899 250C61.3899 354.166 145.833 438.61 250 438.61Z" fill="#E6E6E6"/>
</g>
<g opacity="0.36">
<path d="M349.35 121.75V110.66H223.04V121.75C223.04 130.03 216.33 136.74 208.05 136.74C200.55 136.74 194.47 142.82 194.47 150.32V301.79C194.47 319.23 208.61 333.37 226.05 333.37H348.19C365.63 333.37 379.77 319.23 379.77 301.79V150.32C379.77 142.82 373.69 136.74 366.19 136.74H364.33C356.05 136.74 349.34 130.03 349.34 121.75H349.35Z" fill="#656565"/>
</g>
<path d="M282.23 89.9499C299.699 89.9499 313.86 75.7887 313.86 58.3199C313.86 40.8512 299.699 26.6899 282.23 26.6899C264.761 26.6899 250.6 40.8512 250.6 58.3199C250.6 75.7887 264.761 89.9499 282.23 89.9499Z" fill="#656565"/>
<path d="M283.05 40.52C283.5 40.52 283.81 40.61 283.98 40.8C284.15 40.99 284.24 41.3 284.24 41.75V43.69C286.06 43.95 287.54 44.54 288.67 45.45C289.8 46.36 290.75 47.61 291.52 49.19C291.76 49.67 291.82 50.05 291.7 50.34C291.58 50.63 291.26 50.89 290.73 51.13L288.79 52C288.34 52.21 287.99 52.26 287.72 52.16C287.46 52.06 287.19 51.76 286.93 51.29C286.4 50.26 285.76 49.5 285.01 48.99C284.26 48.49 283.21 48.24 281.86 48.24C280.17 48.24 278.93 48.5 278.14 49.01C277.35 49.52 276.95 50.35 276.95 51.48C276.95 52.22 277.23 52.81 277.8 53.26C278.37 53.71 278.99 54.01 279.68 54.15C280.37 54.3 281.32 54.43 282.53 54.57C283.64 54.68 284.55 54.79 285.26 54.91C285.97 55.03 286.82 55.26 287.79 55.6C288.77 55.94 289.54 56.37 290.11 56.89C290.68 57.4 291.17 58.14 291.59 59.09C292.01 60.04 292.22 61.15 292.22 62.41C292.22 64.57 291.53 66.35 290.14 67.75C288.75 69.15 286.78 70.03 284.22 70.4V72.46C284.22 72.91 284.13 73.22 283.96 73.41C283.79 73.59 283.48 73.69 283.03 73.69H280.85C280.4 73.69 280.08 73.6 279.9 73.41C279.72 73.22 279.62 72.91 279.62 72.46V70.44C275.66 69.94 273.02 67.91 271.7 64.35C271.38 63.48 271.69 62.87 272.61 62.53L274.55 61.82C275.05 61.64 275.43 61.61 275.7 61.74C275.96 61.87 276.2 62.19 276.41 62.69C277.28 64.91 279.06 66.01 281.75 66.01C285.39 66.01 287.21 64.85 287.21 62.53C287.21 61.92 287.07 61.42 286.79 61.03C286.51 60.63 286.08 60.32 285.5 60.1C284.92 59.88 284.35 59.71 283.78 59.61C283.21 59.51 282.48 59.41 281.58 59.33C280.5 59.23 279.58 59.1 278.83 58.95C278.08 58.81 277.23 58.55 276.28 58.2C275.33 57.84 274.56 57.4 273.96 56.87C273.37 56.34 272.87 55.62 272.46 54.69C272.05 53.77 271.85 52.7 271.85 51.48C271.85 49.34 272.51 47.59 273.83 46.24C275.15 44.88 277.08 44.03 279.61 43.69V41.75C279.61 41.3 279.7 40.98 279.89 40.8C280.08 40.62 280.39 40.52 280.84 40.52H283.02H283.05Z" fill="white"/>
<path d="M367.68 70.1199H205.08V110.67H367.68V70.1199Z" fill="#787878"/>
<g opacity="0.09">
<path d="M252.88 70.1198C252.88 70.1198 250.32 64.2198 250.6 58.3198L313.3 64.2198C313.3 64.2198 312.47 68.5298 311.57 70.1198H252.87H252.88Z" fill="#000001"/>
</g>
<path d="M360.1 294.21V283.14H342.7C338.11 282.09 332.89 281.48 327.34 281.48C321.79 281.48 316.57 282.08 311.98 283.14H294.35V295.84C294.35 303.77 309.12 310.19 327.33 310.19C345.54 310.19 360.31 303.76 360.31 295.84C360.31 295.29 360.22 294.75 360.08 294.22L360.1 294.21Z" fill="#656565"/>
<g opacity="0.09">
<path d="M360.1 294.21V283.14H342.7C338.11 282.09 332.89 281.48 327.34 281.48C321.79 281.48 316.57 282.08 311.98 283.14H294.35V295.84C294.35 303.77 309.12 310.19 327.33 310.19C345.54 310.19 360.31 303.76 360.31 295.84C360.31 295.29 360.22 294.75 360.08 294.22L360.1 294.21Z" fill="#000001"/>
</g>
<path d="M327.34 297.49C345.554 297.49 360.32 291.065 360.32 283.14C360.32 275.215 345.554 268.79 327.34 268.79C309.126 268.79 294.36 275.215 294.36 283.14C294.36 291.065 309.126 297.49 327.34 297.49Z" fill="#656565"/>
<path d="M284.47 294.21V283.14H267.07C262.48 282.09 257.26 281.48 251.71 281.48C246.16 281.48 240.94 282.08 236.35 283.14H218.72V295.84C218.72 303.77 233.49 310.19 251.7 310.19C269.91 310.19 284.68 303.76 284.68 295.84C284.68 295.29 284.59 294.75 284.45 294.22L284.47 294.21Z" fill="#656565"/>
<g opacity="0.09">
<path d="M284.47 294.21V283.14H267.07C262.48 282.09 257.26 281.48 251.71 281.48C246.16 281.48 240.94 282.08 236.35 283.14H218.72V295.84C218.72 303.77 233.49 310.19 251.7 310.19C269.91 310.19 284.68 303.76 284.68 295.84C284.68 295.29 284.59 294.75 284.45 294.22L284.47 294.21Z" fill="#000001"/>
</g>
<path d="M251.71 297.49C269.924 297.49 284.69 291.065 284.69 283.14C284.69 275.215 269.924 268.79 251.71 268.79C233.496 268.79 218.73 275.215 218.73 283.14C218.73 291.065 233.496 297.49 251.71 297.49Z" fill="#656565"/>
<path d="M354.03 276.82V265.75H336.63C332.04 264.7 326.82 264.09 321.27 264.09C315.72 264.09 310.5 264.69 305.91 265.75H288.28V278.45C288.28 286.38 303.05 292.8 321.26 292.8C339.47 292.8 354.24 286.37 354.24 278.45C354.24 277.9 354.15 277.36 354.01 276.83L354.03 276.82Z" fill="#656565"/>
<g opacity="0.09">
<path d="M354.03 276.82V265.75H336.63C332.04 264.7 326.82 264.09 321.27 264.09C315.72 264.09 310.5 264.69 305.91 265.75H288.28V278.45C288.28 286.38 303.05 292.8 321.26 292.8C339.47 292.8 354.24 286.37 354.24 278.45C354.24 277.9 354.15 277.36 354.01 276.83L354.03 276.82Z" fill="#000001"/>
</g>
<path d="M321.27 280.1C339.484 280.1 354.25 273.675 354.25 265.75C354.25 257.825 339.484 251.4 321.27 251.4C303.056 251.4 288.29 257.825 288.29 265.75C288.29 273.675 303.056 280.1 321.27 280.1Z" fill="#656565"/>
<path d="M356.79 258.88V247.81H339.39C334.8 246.76 329.58 246.15 324.03 246.15C318.48 246.15 313.26 246.75 308.67 247.81H291.04V260.51C291.04 268.44 305.81 274.86 324.02 274.86C342.23 274.86 357 268.43 357 260.51C357 259.96 356.91 259.42 356.77 258.89L356.79 258.88Z" fill="#656565"/>
<g opacity="0.09">
<path d="M356.79 258.88V247.81H339.39C334.8 246.76 329.58 246.15 324.03 246.15C318.48 246.15 313.26 246.75 308.67 247.81H291.04V260.51C291.04 268.44 305.81 274.86 324.02 274.86C342.23 274.86 357 268.43 357 260.51C357 259.96 356.91 259.42 356.77 258.89L356.79 258.88Z" fill="#000001"/>
</g>
<path d="M324.03 262.16C342.244 262.16 357.01 255.735 357.01 247.81C357.01 239.885 342.244 233.46 324.03 233.46C305.816 233.46 291.05 239.885 291.05 247.81C291.05 255.735 305.816 262.16 324.03 262.16Z" fill="#656565"/>
<path d="M356.79 244.53V233.46H339.39C334.8 232.41 329.58 231.8 324.03 231.8C318.48 231.8 313.26 232.4 308.67 233.46H291.04V246.16C291.04 254.09 305.81 260.51 324.02 260.51C342.23 260.51 357 254.08 357 246.16C357 245.61 356.91 245.07 356.77 244.54L356.79 244.53Z" fill="#656565"/>
<g opacity="0.09">
<path d="M356.79 244.53V233.46H339.39C334.8 232.41 329.58 231.8 324.03 231.8C318.48 231.8 313.26 232.4 308.67 233.46H291.04V246.16C291.04 254.09 305.81 260.51 324.02 260.51C342.23 260.51 357 254.08 357 246.16C357 245.61 356.91 245.07 356.77 244.54L356.79 244.53Z" fill="#000001"/>
</g>
<path d="M324.03 247.8C342.244 247.8 357.01 241.375 357.01 233.45C357.01 225.525 342.244 219.1 324.03 219.1C305.816 219.1 291.05 225.525 291.05 233.45C291.05 241.375 305.816 247.8 324.03 247.8Z" fill="#656565"/>
<path d="M340.12 136.12L333.98 126.91L319.5 136.57C315.1 138.24 310.42 140.64 305.8 143.72C301.18 146.8 297.18 150.2 293.94 153.62L279.28 163.4L286.33 173.96C290.73 180.55 306.58 177.7 321.73 167.6C336.88 157.49 345.6 143.95 341.2 137.36C340.89 136.9 340.52 136.5 340.11 136.13L340.12 136.12Z" fill="#656565"/>
<g opacity="0.09">
<path d="M340.12 136.12L333.98 126.91L319.5 136.57C315.1 138.24 310.42 140.64 305.8 143.72C301.18 146.8 297.18 150.2 293.94 153.62L279.28 163.4L286.33 173.96C290.73 180.55 306.58 177.7 321.73 167.6C336.88 157.49 345.6 143.95 341.2 137.36C340.89 136.9 340.52 136.5 340.11 136.13L340.12 136.12Z" fill="#000001"/>
</g>
<path d="M314.685 157.005C329.837 146.896 338.554 133.357 334.155 126.764C329.757 120.171 313.908 123.022 298.757 133.131C283.605 143.239 274.888 156.779 279.286 163.371C283.685 169.964 299.533 167.114 314.685 157.005Z" fill="#656565"/>
<g opacity="0.09">
<path d="M301.1 255.8C301.1 255.8 330 261.34 329.45 283.14C328.9 304.95 333.58 309.93 333.58 309.93C333.58 309.93 320.7 311.57 306.86 307.08C293.02 302.59 301.1 255.79 301.1 255.79V255.8Z" fill="#000001"/>
</g>
<path d="M293.37 313.09C309.48 313.09 322.54 300.03 322.54 283.92C322.54 267.81 309.48 254.75 293.37 254.75C277.26 254.75 264.2 267.81 264.2 283.92C264.2 300.03 277.26 313.09 293.37 313.09Z" fill="#656565"/>
<g opacity="0.09">
<path d="M293.37 313.09C309.48 313.09 322.54 300.03 322.54 283.92C322.54 267.81 309.48 254.75 293.37 254.75C277.26 254.75 264.2 267.81 264.2 283.92C264.2 300.03 277.26 313.09 293.37 313.09Z" fill="#000001"/>
</g>
<path d="M285.22 313.09C301.33 313.09 314.39 300.03 314.39 283.92C314.39 267.81 301.33 254.75 285.22 254.75C269.11 254.75 256.05 267.81 256.05 283.92C256.05 300.03 269.11 313.09 285.22 313.09Z" fill="#656565"/>
<path d="M244.34 240.55C260.45 240.55 273.51 227.49 273.51 211.38C273.51 195.27 260.45 182.21 244.34 182.21C228.23 182.21 215.17 195.27 215.17 211.38C215.17 227.49 228.23 240.55 244.34 240.55Z" fill="#656565"/>
<g opacity="0.09">
<path d="M244.34 240.55C260.45 240.55 273.51 227.49 273.51 211.38C273.51 195.27 260.45 182.21 244.34 182.21C228.23 182.21 215.17 195.27 215.17 211.38C215.17 227.49 228.23 240.55 244.34 240.55Z" fill="#000001"/>
</g>
<path d="M244.34 232.41C260.45 232.41 273.51 219.35 273.51 203.24C273.51 187.13 260.45 174.07 244.34 174.07C228.23 174.07 215.17 187.13 215.17 203.24C215.17 219.35 228.23 232.41 244.34 232.41Z" fill="#656565"/>
<g opacity="0.09">
<path d="M277.77 287.58C277.77 287.58 314.8 293.03 287.13 331.22C259.46 369.42 254.78 316.29 277.77 287.58Z" fill="#000001"/>
</g>
<path d="M204.48 340.51C204.48 340.51 240.38 270.57 274.08 284.16C282.02 287.36 278.98 301.47 275.01 312.77C272.71 319.32 278.3 325.92 285.13 324.73C311.09 320.23 359.98 312.67 371.52 317.22C387.43 323.49 377.43 341.61 328.87 356.64C291.13 368.32 281.78 378.74 253.85 397.38C211.14 425.88 185.59 371.82 204.46 340.51H204.48Z" fill="#CDCDCD"/>
<path d="M199.99 336.82L239.25 409.82L179.73 473.31L120.22 396.89L199.99 336.82Z" fill="#787878"/>
<g opacity="0.09">
<path d="M158.37 443.86L230.5 392.37L239.25 409.82L179.73 473.31L158.37 443.86Z" fill="#000001"/>
</g>
</svg>
