<svg width="530" height="430" viewBox="0 0 530 430" fill="none" xmlns="http://www.w3.org/2000/svg">
<path d="M479.74 69.17H47.1299V375.62H479.74V69.17Z" fill="#E6E6E6"/>
<path d="M479.74 32H47.1299V69.17H479.74V32Z" fill="#A5A5A5"/>
<path d="M355.01 306.36C353.58 306.36 352.09 306.31 350.54 306.2C323.77 304.29 315.68 275.31 307.86 247.29C299.55 217.5 291.71 189.37 263.55 191.12C241 192.52 228.87 208.83 217.14 224.61C205.87 239.77 195.22 254.09 176.31 255.36C174.64 255.47 173.01 255.53 171.44 255.53C143.85 255.53 131.83 238.82 121.14 223.98C112.2 211.56 104.47 200.83 89.2899 200.83C89.1799 200.83 89.0599 200.83 88.9499 200.83L88.9099 196.83C89.0399 196.83 89.1699 196.83 89.2999 196.83C106.52 196.83 115.2 208.89 124.39 221.65C135.6 237.21 147.22 253.3 176.04 251.38C193.11 250.24 203.22 236.64 213.93 222.24C226.2 205.73 238.9 188.66 263.3 187.14C294.69 185.18 303.34 216.22 311.71 246.23C319.5 274.15 326.85 300.52 350.82 302.23C376.85 304.09 384.04 288.53 392.38 270.51C400.79 252.34 410.32 231.74 441.4 227.3L441.97 231.26C413.04 235.39 404.38 254.1 396.01 272.19C387.89 289.75 380.18 306.39 355.01 306.39V306.36Z" fill="#A5A5A5"/>
<path d="M89.4399 173.97H88.4399V323.6H89.4399V173.97Z" fill="#A5A5A5"/>
<path d="M176.69 173.97H175.69V323.6H176.69V173.97Z" fill="#A5A5A5"/>
<path d="M263.94 173.97H262.94V323.6H263.94V173.97Z" fill="#A5A5A5"/>
<path d="M351.19 173.97H350.19V323.6H351.19V173.97Z" fill="#A5A5A5"/>
<path d="M438.44 173.97H437.44V323.6H438.44V173.97Z" fill="#A5A5A5"/>
<g opacity="0.08">
<path d="M169.44 151.39H47.1299V234.37H169.44V151.39Z" fill="#000001"/>
</g>
<g opacity="0.08">
<path d="M233.37 299.18H111.06V375.61H233.37V299.18Z" fill="#000001"/>
</g>
<g opacity="0.08">
<path d="M396.73 275.36H272.58V375.61H396.73V275.36Z" fill="#000001"/>
</g>
<g opacity="0.08">
<path d="M479.74 153.88H370.09V198.38H479.74V153.88Z" fill="#000001"/>
</g>
<path d="M71.2998 56.25C74.6245 56.25 77.3198 53.5548 77.3198 50.23C77.3198 46.9053 74.6245 44.21 71.2998 44.21C67.975 44.21 65.2798 46.9053 65.2798 50.23C65.2798 53.5548 67.975 56.25 71.2998 56.25Z" fill="#DEDEDE"/>
<path d="M90.5298 56.25C93.8545 56.25 96.5498 53.5548 96.5498 50.23C96.5498 46.9053 93.8545 44.21 90.5298 44.21C87.205 44.21 84.5098 46.9053 84.5098 50.23C84.5098 53.5548 87.205 56.25 90.5298 56.25Z" fill="#DEDEDE"/>
<path d="M109.77 56.25C113.095 56.25 115.79 53.5548 115.79 50.23C115.79 46.9053 113.095 44.21 109.77 44.21C106.445 44.21 103.75 46.9053 103.75 50.23C103.75 53.5548 106.445 56.25 109.77 56.25Z" fill="#DEDEDE"/>
<g opacity="0.46">
<path d="M456.94 85.96H71.2998V128.07H456.94V85.96Z" fill="white"/>
</g>
<path d="M162.74 143.8H29V226.47H162.74V143.8Z" fill="#A4A4A4"/>
<g opacity="0.46">
<path d="M41.8401 205.85V190.96L64.5301 178.51L75.3901 192.18L100.98 173.91L112.17 189.88L149.89 164.42V205.85H41.8401Z" fill="white"/>
</g>
<path d="M66.0901 166.59H41.8401V170.74H66.0901V166.59Z" fill="#D5D5D5"/>
<path d="M76.4701 156.57H41.8401V160.72H76.4701V156.57Z" fill="#787878"/>
<path d="M223.47 287.65H74.95V395.16H223.47V287.65Z" fill="#A4A4A4"/>
<path d="M116.3 349.02H95.8699V384.21H116.3V349.02Z" fill="#D5D5D5"/>
<path d="M205.79 341H185.36V384.21H205.79V341Z" fill="#787878"/>
<path d="M146.39 320.94H125.96V384.21H146.39V320.94Z" fill="#787878"/>
<path d="M176.76 300.57H156.33V384.21H176.76V300.57Z" fill="#787878"/>
<path d="M500.98 260.38H280.91V397.96H500.98V260.38Z" fill="#A4A4A4"/>
<g opacity="0.08">
<path d="M353.25 378.32C326.15 378.32 304.1 356.27 304.1 329.17C304.1 302.07 326.15 280.02 353.25 280.02C380.35 280.02 402.4 302.07 402.4 329.17C402.4 356.27 380.35 378.32 353.25 378.32ZM353.25 293.26C333.45 293.26 317.34 309.37 317.34 329.17C317.34 348.97 333.45 365.08 353.25 365.08C373.05 365.08 389.16 348.97 389.16 329.17C389.16 309.37 373.05 293.26 353.25 293.26Z" fill="#000001"/>
</g>
<g opacity="0.46">
<path d="M353.25 378.32C341.22 378.32 329.64 373.93 320.65 365.95L329.43 356.05C336 361.88 344.46 365.08 353.25 365.08V378.32Z" fill="white"/>
</g>
<path d="M402.39 329.17H389.15C389.15 309.37 373.04 293.26 353.24 293.26V280.02C380.34 280.02 402.39 302.07 402.39 329.17Z" fill="#787878"/>
<path d="M353.25 378.32V365.08C373.05 365.08 389.16 348.97 389.16 329.17H402.4C402.4 356.27 380.35 378.32 353.25 378.32Z" fill="#D5D5D5"/>
<path d="M354.33 313.27C355.2 313.27 355.47 313.57 355.47 314.45V316.31C358.96 316.8 360.97 318.55 362.45 321.58C362.91 322.49 362.72 322.98 361.69 323.44L359.83 324.28C358.96 324.7 358.54 324.51 358.05 323.6C357.03 321.63 355.77 320.68 353.19 320.68C349.96 320.68 348.48 321.63 348.48 323.79C348.48 325.19 349.77 326.07 351.1 326.33C351.75 326.48 352.66 326.63 353.83 326.75C355.96 326.94 357.02 327.09 358.88 327.74C359.83 328.08 360.55 328.46 361.12 328.95C362.18 329.94 363.13 331.83 363.13 334.26C363.13 338.4 360.36 341.2 355.46 341.93V343.9C355.46 344.77 355.19 345.08 354.32 345.08H352.23C351.36 345.08 351.05 344.78 351.05 343.9V341.96C347.25 341.47 344.71 339.53 343.46 336.12C343.16 335.29 343.46 334.72 344.33 334.37L346.19 333.69C347.14 333.35 347.56 333.58 347.97 334.53C348.8 336.65 350.51 337.72 353.09 337.72C356.58 337.72 358.33 336.62 358.33 334.38C358.33 333.2 357.8 332.48 356.7 332.03C355.6 331.61 354.65 331.46 352.94 331.31C350.85 331.12 349.68 330.89 347.85 330.21C346.94 329.87 346.22 329.45 345.65 328.96C344.51 327.94 343.6 326.11 343.6 323.8C343.6 319.7 346.18 316.97 351.04 316.32V314.46C351.04 313.59 351.34 313.28 352.22 313.28H354.31L354.33 313.27Z" fill="white"/>
<g opacity="0.08">
<path d="M477.8 299.18H418.69V308.88H477.8V299.18Z" fill="#000001"/>
</g>
<g opacity="0.08">
<path d="M477.73 324.35H418.62V334.05H477.73V324.35Z" fill="#000001"/>
</g>
<g opacity="0.08">
<path d="M462.91 349.46H418.62V359.16H462.91V349.46Z" fill="#000001"/>
</g>
<path d="M494.12 138.36H381.77V190.31H494.12V138.36Z" fill="#A4A4A4"/>
<path d="M399.11 161.46C402.794 161.46 405.78 158.474 405.78 154.79C405.78 151.106 402.794 148.12 399.11 148.12C395.426 148.12 392.44 151.106 392.44 154.79C392.44 158.474 395.426 161.46 399.11 161.46Z" fill="#787878"/>
<g opacity="0.08">
<path d="M483.44 151.39H413.39V158.19H483.44V151.39Z" fill="#000001"/>
</g>
<path d="M399.11 180.54C402.794 180.54 405.78 177.554 405.78 173.87C405.78 170.186 402.794 167.2 399.11 167.2C395.426 167.2 392.44 170.186 392.44 173.87C392.44 177.554 395.426 180.54 399.11 180.54Z" fill="#D5D5D5"/>
<g opacity="0.08">
<path d="M483.44 170.47H413.39V177.27H483.44V170.47Z" fill="#000001"/>
</g>
</svg>
