<svg width="474" height="418" viewBox="0 0 474 418" fill="none" xmlns="http://www.w3.org/2000/svg">
<path d="M314.76 125.9C314.76 125.9 347.26 187.41 354.94 253.05C362.62 318.69 342.48 364 231.35 356.51C120.23 349.02 93.36 303.52 113.69 243.03C134.03 182.53 222.92 109.63 222.92 109.63L314.75 125.9H314.76Z" fill="#A4A4A4"/>
<path d="M314.76 125.9C314.76 125.9 371.73 90.11 356.75 64.14C341.77 38.16 305.35 44.51 286.47 35.21C267.59 25.92 166.3 9.51 222.93 109.63L314.76 125.9Z" fill="#A4A4A4"/>
<path d="M319.85 132.49C319.68 132.47 319.5 132.43 319.33 132.37C318.78 132.19 263.72 113.99 216.61 109.31C216.58 109.31 216.54 109.31 216.51 109.3C215.01 109.1 213.92 107.74 214.07 106.21C214.22 104.65 215.61 103.52 217.17 103.67C264.94 108.43 320.56 126.81 321.12 127C322.6 127.49 323.41 129.1 322.91 130.58C322.47 131.89 321.17 132.67 319.85 132.49Z" fill="#D5D5D5"/>
<path d="M186.68 180.53C180.33 180.53 173.47 177.45 166.22 171.31C155.98 162.65 151.85 153.83 153.92 145.11C157.91 128.3 184.87 116.68 202.27 110.84C183.19 108.76 153.21 103.42 148.67 90.24C146.62 84.29 149.63 77.81 157.6 70.98C166.92 62.99 176.34 60.21 185.6 62.72C208.83 69.01 222.14 106.71 222.69 108.31C222.82 108.68 222.87 109.07 222.84 109.46C222.64 111.89 217.78 169.19 194.06 179.06C191.68 180.05 189.22 180.54 186.68 180.54V180.53ZM216.88 112.36C200.9 116.44 163.47 129.37 159.43 146.42C157.89 152.9 161.41 159.82 169.88 166.99C178.29 174.1 185.69 176.41 191.89 173.82C207.85 167.18 215 129.93 216.88 112.35V112.36ZM179.06 67.5C173.28 67.5 167.32 70.1 161.29 75.27C155.26 80.44 152.81 84.85 154.03 88.39C157.76 99.24 193.08 105.03 215.85 106.3C211.92 96.77 200.47 72.59 184.12 68.17C182.45 67.72 180.76 67.49 179.06 67.49V67.5Z" fill="#D5D5D5"/>
<path d="M356.84 63C356.84 63 367.67 83.59 344.59 86.39C321.51 89.19 302.57 67.98 284.24 72.69C265.91 77.4 212.56 86.02 205.75 60.68C198.93 35.33 231.55 23.33 253.14 26.44C274.73 29.55 350.91 38.84 356.84 63Z" fill="#D5D5D5"/>
<path opacity="0.03" d="M237 417.26C367.56 417.26 473.4 394.628 473.4 366.71C473.4 338.792 367.56 316.16 237 316.16C106.44 316.16 0.600098 338.792 0.600098 366.71C0.600098 394.628 106.44 417.26 237 417.26Z" fill="#000001"/>
<path d="M303.73 306.65L303.69 329.76C303.67 340.23 274.47 348.68 238.46 348.62C202.45 348.56 173.28 340.02 173.3 329.54L173.34 306.43L303.73 306.65Z" fill="#D5D5D5"/>
<path d="M303.69 334.5L303.65 357.61C303.63 368.08 274.43 376.53 238.42 376.47C202.41 376.41 173.24 367.87 173.26 357.39L173.3 334.28L303.69 334.5Z" fill="#D5D5D5"/>
<path opacity="0.08" d="M303.69 334.5L303.65 357.61C303.63 368.08 274.43 376.53 238.42 376.47C202.41 376.41 173.24 367.87 173.26 357.39L173.3 334.28L303.69 334.5Z" fill="#000001"/>
<path d="M302.447 333.757C302.465 323.38 273.562 314.917 237.89 314.854C202.218 314.792 173.286 323.154 173.267 333.531C173.249 343.909 202.152 352.372 237.825 352.434C273.497 352.496 302.429 344.134 302.447 333.757Z" fill="#D5D5D5"/>
<path opacity="0.08" d="M303.73 306.65L303.69 329.76C303.67 340.23 274.47 348.68 238.46 348.62C202.45 348.56 173.28 340.02 173.3 329.54L173.34 306.43L303.73 306.65Z" fill="#000001"/>
<path d="M299.04 279.02L299 302.13C298.98 312.6 269.78 321.05 233.77 320.99C197.76 320.93 168.59 312.39 168.61 301.91L168.65 278.8L299.04 279.02Z" fill="#D5D5D5"/>
<path d="M303.83 251.17L303.79 274.28C303.77 284.75 274.57 293.2 238.56 293.14C202.55 293.08 173.38 284.54 173.4 274.06L173.44 250.95L303.83 251.17Z" fill="#D5D5D5"/>
<path d="M302.507 306.159C302.525 295.781 273.622 287.318 237.95 287.256C202.278 287.194 173.346 295.556 173.327 305.933C173.309 316.311 202.213 324.774 237.885 324.836C273.557 324.898 302.489 316.536 302.507 306.159Z" fill="#D5D5D5"/>
<path opacity="0.08" d="M299.04 279.02L299 302.13C298.98 312.6 269.78 321.05 233.77 320.99C197.76 320.93 168.59 312.39 168.61 301.91L168.65 278.8L299.04 279.02Z" fill="#000001"/>
<path d="M297.849 278.791C297.867 268.414 268.964 259.951 233.292 259.888C197.62 259.826 168.688 268.188 168.67 278.566C168.651 288.943 197.555 297.406 233.227 297.468C268.899 297.53 297.831 289.168 297.849 278.791Z" fill="#D5D5D5"/>
<path opacity="0.08" d="M303.83 251.17L303.79 274.28C303.77 284.75 274.57 293.2 238.56 293.14C202.55 293.08 173.38 284.54 173.4 274.06L173.44 250.95L303.83 251.17Z" fill="#000001"/>
<path d="M303.839 251.194C303.857 240.817 274.672 232.353 238.652 232.29C202.632 232.227 173.417 240.589 173.399 250.966C173.381 261.344 202.566 269.807 238.586 269.87C274.606 269.933 303.821 261.571 303.839 251.194Z" fill="#D5D5D5"/>
<path d="M455.18 301.95L455.14 327.82C455.12 339.54 422.43 348.99 382.13 348.93C341.83 348.86 309.17 339.3 309.19 327.58L309.23 301.71L455.18 301.96V301.95Z" fill="#D5D5D5"/>
<path d="M455.13 333.13L455.09 359C455.07 370.72 422.38 380.17 382.08 380.11C341.78 380.04 309.12 370.48 309.14 358.76L309.18 332.89L455.13 333.14V333.13Z" fill="#D5D5D5"/>
<path opacity="0.08" d="M455.13 333.13L455.09 359C455.07 370.72 422.38 380.17 382.08 380.11C341.78 380.04 309.12 370.48 309.14 358.76L309.18 332.89L455.13 333.14V333.13Z" fill="#000001"/>
<path d="M453.758 332.288C453.778 320.674 421.425 311.202 381.495 311.132C341.564 311.062 309.178 320.421 309.158 332.036C309.138 343.65 341.491 353.122 381.421 353.192C421.351 353.262 453.738 343.903 453.758 332.288Z" fill="#D5D5D5"/>
<path opacity="0.08" d="M455.18 301.95L455.14 327.82C455.12 339.54 422.43 348.99 382.13 348.93C341.83 348.86 309.17 339.3 309.19 327.58L309.23 301.71L455.18 301.96V301.95Z" fill="#000001"/>
<path d="M449.92 271.03L449.88 296.9C449.86 308.62 417.17 318.07 376.87 318.01C336.57 317.94 303.91 308.38 303.93 296.66L303.97 270.79L449.92 271.04V271.03Z" fill="#D5D5D5"/>
<path d="M455.28 239.86L455.24 265.73C455.22 277.45 422.53 286.9 382.23 286.84C341.93 286.77 309.27 277.21 309.29 265.49L309.33 239.62L455.28 239.87V239.86Z" fill="#D5D5D5"/>
<path d="M453.818 301.404C453.838 289.79 421.485 280.318 381.555 280.248C341.625 280.178 309.238 289.537 309.218 301.152C309.198 312.766 341.551 322.238 381.481 322.308C421.411 322.378 453.798 313.019 453.818 301.404Z" fill="#D5D5D5"/>
<path opacity="0.08" d="M449.92 271.03L449.88 296.9C449.86 308.62 417.17 318.07 376.87 318.01C336.57 317.94 303.91 308.38 303.93 296.66L303.97 270.79L449.92 271.04V271.03Z" fill="#000001"/>
<path d="M448.609 270.761C448.629 259.146 416.276 249.674 376.346 249.604C336.416 249.535 304.029 258.894 304.009 270.508C303.989 282.123 336.342 291.595 376.272 291.664C416.202 291.734 448.589 282.375 448.609 270.761Z" fill="#D5D5D5"/>
<path opacity="0.08" d="M455.28 239.86L455.24 265.73C455.22 277.45 422.53 286.9 382.23 286.84C341.93 286.77 309.27 277.21 309.29 265.49L309.33 239.62L455.28 239.87V239.86Z" fill="#000001"/>
<path d="M455.309 239.878C455.33 228.263 422.663 218.791 382.346 218.721C342.03 218.65 309.33 228.009 309.31 239.623C309.289 251.238 341.956 260.71 382.273 260.781C422.59 260.851 455.289 251.492 455.309 239.878Z" fill="#D5D5D5"/>
<path d="M327.41 206.89L327.45 232.76C327.47 244.48 360.16 253.93 400.46 253.87C440.76 253.8 473.42 244.24 473.4 232.52L473.36 206.65L327.41 206.9V206.89Z" fill="#D5D5D5"/>
<path d="M322.05 175.72L322.09 201.59C322.11 213.31 354.8 222.76 395.1 222.7C435.4 222.63 468.06 213.07 468.04 201.35L468 175.48L322.05 175.73V175.72Z" fill="#D5D5D5"/>
<path opacity="0.08" d="M327.41 206.89L327.45 232.76C327.47 244.48 360.16 253.93 400.46 253.87C440.76 253.8 473.42 244.24 473.4 232.52L473.36 206.65L327.41 206.9V206.89Z" fill="#000001"/>
<path d="M401.108 227.487C441.038 227.417 473.392 217.945 473.371 206.331C473.351 194.716 440.965 185.357 401.035 185.427C361.105 185.497 328.751 194.969 328.772 206.583C328.792 218.198 361.178 227.557 401.108 227.487Z" fill="#D5D5D5"/>
<path opacity="0.08" d="M322.05 175.72L322.09 201.59C322.11 213.31 354.8 222.76 395.1 222.7C435.4 222.63 468.06 213.07 468.04 201.35L468 175.48L322.05 175.73V175.72Z" fill="#000001"/>
<path d="M395.104 196.607C435.421 196.537 468.088 187.065 468.067 175.45C468.047 163.836 435.348 154.477 395.031 154.548C354.714 154.618 322.047 164.09 322.068 175.705C322.088 187.319 354.788 196.678 395.104 196.607Z" fill="#D5D5D5"/>
<path d="M161.59 300.02L161.55 325.89C161.53 337.61 128.84 347.06 88.5401 347C48.2401 346.93 15.5801 337.37 15.6001 325.65L15.6401 299.78L161.59 300.03V300.02Z" fill="#D5D5D5"/>
<path d="M161.53 331.2L161.49 357.07C161.47 368.79 128.78 378.24 88.48 378.18C48.18 378.11 15.52 368.55 15.54 356.83L15.58 330.96L161.53 331.21V331.2Z" fill="#D5D5D5"/>
<path opacity="0.08" d="M161.53 331.2L161.49 357.07C161.47 368.79 128.78 378.24 88.48 378.18C48.18 378.11 15.52 368.55 15.54 356.83L15.58 330.96L161.53 331.21V331.2Z" fill="#000001"/>
<path d="M160.146 330.364C160.166 318.75 127.812 309.278 87.8823 309.208C47.9522 309.138 15.566 318.497 15.5457 330.112C15.5255 341.726 47.8788 351.198 87.8089 351.268C127.739 351.338 160.125 341.979 160.146 330.364Z" fill="#D5D5D5"/>
<path opacity="0.08" d="M161.59 300.02L161.55 325.89C161.53 337.61 128.84 347.06 88.5401 347C48.2401 346.93 15.5801 337.37 15.6001 325.65L15.6401 299.78L161.59 300.03V300.02Z" fill="#000001"/>
<path d="M156.33 269.09L156.29 294.96C156.27 306.68 123.58 316.13 83.2801 316.07C42.9801 316 10.3201 306.44 10.3401 294.72L10.3801 268.85L156.33 269.1V269.09Z" fill="#D5D5D5"/>
<path d="M161.69 237.92L161.65 263.79C161.63 275.51 128.94 284.96 88.6402 284.9C48.3402 284.83 15.6802 275.27 15.7002 263.55L15.7402 237.68L161.69 237.93V237.92Z" fill="#D5D5D5"/>
<path d="M160.196 299.47C160.216 287.856 127.863 278.384 87.9324 278.314C48.0023 278.244 15.6161 287.603 15.5958 299.218C15.5755 310.832 47.9289 320.304 87.859 320.374C127.789 320.444 160.175 311.085 160.196 299.47Z" fill="#D5D5D5"/>
<path opacity="0.08" d="M156.33 269.09L156.29 294.96C156.27 306.68 123.58 316.13 83.2801 316.07C42.9801 316 10.3201 306.44 10.3401 294.72L10.3801 268.85L156.33 269.1V269.09Z" fill="#000001"/>
<path d="M154.987 268.827C155.007 257.212 122.654 247.74 82.7234 247.671C42.7933 247.601 10.4071 256.96 10.3868 268.574C10.3665 280.189 42.7198 289.661 82.65 289.731C122.58 289.8 154.966 280.441 154.987 268.827Z" fill="#D5D5D5"/>
<path opacity="0.08" d="M161.69 237.92L161.65 263.79C161.63 275.51 128.94 284.96 88.6402 284.9C48.3402 284.83 15.6802 275.27 15.7002 263.55L15.7402 237.68L161.69 237.93V237.92Z" fill="#000001"/>
<path opacity="0.08" d="M158.81 383.02C188.727 383.02 212.98 358.767 212.98 328.85C212.98 298.933 188.727 274.68 158.81 274.68C128.893 274.68 104.64 298.933 104.64 328.85C104.64 358.767 128.893 383.02 158.81 383.02Z" fill="#000001"/>
<path opacity="0.08" d="M122.77 274.61C122.77 274.61 66.06 291.92 75.17 377.8C75.17 377.8 112.14 379.05 129.7 374.54C145.39 370.51 122.78 274.61 122.78 274.61H122.77Z" fill="#000001"/>
<path d="M161.697 237.944C161.717 226.33 129.051 216.857 88.7339 216.787C48.4172 216.716 15.7176 226.075 15.6973 237.689C15.6771 249.304 48.3438 258.776 88.6605 258.847C128.977 258.917 161.677 249.559 161.697 237.944Z" fill="#D5D5D5"/>
<path d="M158.81 383.02C188.727 383.02 212.98 358.767 212.98 328.85C212.98 298.933 188.727 274.68 158.81 274.68C128.893 274.68 104.64 298.933 104.64 328.85C104.64 358.767 128.893 383.02 158.81 383.02Z" fill="#D5D5D5"/>
<g opacity="0.08">
<path d="M161.45 366.7C191.367 366.7 215.62 342.447 215.62 312.53C215.62 282.613 191.367 258.36 161.45 258.36C131.533 258.36 107.28 282.613 107.28 312.53C107.28 342.447 131.533 366.7 161.45 366.7Z" fill="#000001"/>
</g>
<path opacity="0.08" d="M158.81 383.02C188.727 383.02 212.98 358.767 212.98 328.85C212.98 298.933 188.727 274.68 158.81 274.68C128.893 274.68 104.64 298.933 104.64 328.85C104.64 358.767 128.893 383.02 158.81 383.02Z" fill="#000001"/>
<path d="M161.45 366.7C191.367 366.7 215.62 342.447 215.62 312.53C215.62 282.613 191.367 258.36 161.45 258.36C131.533 258.36 107.28 282.613 107.28 312.53C107.28 342.447 131.533 366.7 161.45 366.7Z" fill="#D5D5D5"/>
<path d="M163.2 288.3C164.73 288.3 165.2 288.83 165.2 290.37V293.63C171.33 294.5 174.86 297.56 177.46 302.89C178.26 304.49 177.93 305.35 176.13 306.15L172.87 307.62C171.34 308.35 170.6 308.02 169.74 306.42C167.94 302.96 165.74 301.29 161.21 301.29C155.55 301.29 152.95 302.96 152.95 306.75C152.95 309.21 155.21 310.75 157.55 311.21C158.68 311.48 160.28 311.74 162.35 311.94C166.08 312.27 167.95 312.54 171.21 313.67C172.88 314.27 174.14 314.94 175.14 315.8C177 317.53 178.67 320.86 178.67 325.13C178.67 332.39 173.81 337.32 165.21 338.59V342.05C165.21 343.58 164.74 344.11 163.21 344.11H159.55C158.02 344.11 157.48 343.58 157.48 342.05V338.65C150.82 337.78 146.36 334.39 144.16 328.39C143.63 326.93 144.16 325.93 145.69 325.33L148.95 324.13C150.62 323.53 151.35 323.93 152.08 325.6C153.54 329.33 156.54 331.2 161.07 331.2C167.2 331.2 170.26 329.27 170.26 325.34C170.26 323.27 169.33 322.01 167.4 321.21C165.47 320.48 163.8 320.21 160.81 319.94C157.15 319.61 155.08 319.21 151.88 318.01C150.28 317.41 149.02 316.68 148.02 315.81C146.02 314.01 144.42 310.81 144.42 306.75C144.42 299.56 148.95 294.76 157.48 293.63V290.37C157.48 288.84 158.01 288.3 159.55 288.3H163.21H163.2Z" fill="white"/>
<path d="M103.8 76.07C103.8 76.07 100.01 90.42 88.72 97.23C88.72 97.23 100.29 95.45 110.19 109.66C110.19 109.66 113.22 96.84 122.59 88.48C122.59 88.48 108.54 88.32 103.8 76.08V76.07Z" fill="#E6E6E6"/>
<path d="M415.95 70.71C415.95 70.71 404.13 79.69 391.04 78.1C391.04 78.1 401.26 83.82 400.31 101.11C400.31 101.11 410.59 92.87 423.12 92.05C423.12 92.05 412.15 83.28 415.95 70.71Z" fill="#E6E6E6"/>
<path d="M383.8 0.740002C383.8 0.740002 374.64 7.7 364.5 6.46C364.5 6.46 372.42 10.89 371.68 24.29C371.68 24.29 379.64 17.9 389.36 17.27C389.36 17.27 380.86 10.47 383.8 0.740002Z" fill="#E6E6E6"/>
<path opacity="0.58" d="M65.4201 194.38C65.4201 194.38 36.4101 186.46 30.1001 159.46C30.1001 159.46 75.0501 150.37 76.3301 196.77L65.4201 194.38Z" fill="#D5D5D5"/>
<path opacity="0.73" d="M68.98 191.5C68.98 191.5 48.71 159.46 66.55 129.5C66.55 129.5 100.73 151.21 85.54 191.57L68.98 191.5Z" fill="#D5D5D5"/>
<path d="M74.2002 191.52C74.2002 191.52 84.9102 157.68 117.28 151.27C117.28 151.27 123.35 173.24 96.3202 191.61L74.2002 191.52Z" fill="#D5D5D5"/>
<path d="M53.1602 190.76L59.0402 231L96.0802 231.15L101.54 190.97L53.1602 190.76Z" fill="#A4A4A4"/>
</svg>
