<svg width="500" height="500" viewBox="0 0 500 500" fill="none" xmlns="http://www.w3.org/2000/svg">
<g opacity="0.3">
<path d="M384.19 62.53C432.12 89.09 469.06 158.79 478.33 244.07C486.14 315.94 472.19 403.12 393.05 439.9C312.28 477.45 105.49 516 45.5199 368.1C-0.520081 254.55 13.7299 101.88 99.8899 53.53C160.29 19.63 290.59 10.66 384.2 62.53H384.19Z" fill="#E6E6E6"/>
</g>
<path d="M444.7 198.05L308.94 241.46C301.68 220.19 281.53 204.9 257.8 204.9V62.4C345.09 62.4 419.09 119.32 444.7 198.05Z" fill="#A4A4A4"/>
<g opacity="0.08">
<path d="M444.7 198.05L308.94 241.46C301.68 220.19 281.53 204.9 257.8 204.9V62.4C345.09 62.4 419.09 119.32 444.7 198.05Z" fill="#000001"/>
</g>
<path d="M402.42 258.94C402.42 307.36 378.63 350.21 342.12 376.45L289.82 302.36C303.14 292.53 311.77 276.75 311.77 258.93C311.77 254.05 311.12 249.31 309.9 244.8L309.98 244.78L397.41 221.07C400.68 233.13 402.43 245.82 402.43 258.92L402.42 258.94Z" fill="#787878"/>
<path d="M353.35 407.65C325.81 425.42 292.99 435.7 257.79 435.7C220.55 435.7 185.98 424.17 157.49 404.48L229.47 304.86C237.7 309.94 247.4 312.88 257.79 312.88C268.18 312.88 278.32 309.82 286.66 304.5L353.34 407.64L353.35 407.65Z" fill="#A4A4A4"/>
<g opacity="0.46">
<path d="M353.35 407.65C325.81 425.42 292.99 435.7 257.79 435.7C220.55 435.7 185.98 424.17 157.49 404.48L229.47 304.86C237.7 309.94 247.4 312.88 257.79 312.88C268.18 312.88 278.32 309.82 286.66 304.5L353.34 407.64L353.35 407.65Z" fill="white"/>
</g>
<path d="M225.16 301.88L123.47 435.7C123.47 435.7 61.0999 390.31 44.3599 314.98C27.6199 239.63 47.4699 194.26 47.4699 194.26L206.2 243.07C204.67 248.09 203.84 253.42 203.84 258.93C203.84 276.46 212.2 292.04 225.17 301.88H225.16Z" fill="#A4A4A4"/>
<path d="M253.71 205.15C232.73 206.7 215.09 220.27 207.63 238.99C207.63 238.99 162.4 224.41 145.54 218.61C161.61 173.83 203.72 141.47 253.61 139.76L253.71 205.15Z" fill="#787878"/>
<path d="M257.8 300.32C235.07 300.32 216.57 281.82 216.57 259.09C216.57 236.36 235.07 217.86 257.8 217.86C280.53 217.86 299.03 236.36 299.03 259.09C299.03 281.82 280.53 300.32 257.8 300.32ZM257.8 228.96C241.19 228.96 227.67 242.47 227.67 259.09C227.67 275.71 241.18 289.22 257.8 289.22C274.42 289.22 287.93 275.71 287.93 259.09C287.93 242.47 274.42 228.96 257.8 228.96Z" fill="#A5A5A5"/>
<path d="M257.8 300.32C247.71 300.32 237.99 296.63 230.45 289.94L237.82 281.63C243.33 286.52 250.43 289.21 257.8 289.21V300.32Z" fill="#E6E6E6"/>
<path d="M299.03 259.08H287.92C287.92 242.47 274.41 228.95 257.79 228.95V217.84C280.52 217.84 299.02 236.34 299.02 259.07L299.03 259.08Z" fill="#787878"/>
<path d="M257.8 300.32V289.21C274.41 289.21 287.93 275.7 287.93 259.08H299.04C299.04 281.81 280.54 300.31 257.81 300.31L257.8 300.32Z" fill="#A4A4A4"/>
<g opacity="0.08">
<path d="M258.71 245.74C259.44 245.74 259.67 245.99 259.67 246.73V248.29C262.6 248.7 264.29 250.17 265.53 252.71C265.91 253.47 265.75 253.89 264.89 254.27L263.33 254.97C262.6 255.32 262.25 255.16 261.83 254.4C260.97 252.74 259.92 251.95 257.76 251.95C255.05 251.95 253.81 252.75 253.81 254.56C253.81 255.74 254.89 256.47 256.01 256.69C256.55 256.82 257.32 256.94 258.3 257.04C260.08 257.2 260.97 257.33 262.53 257.87C263.33 258.16 263.93 258.48 264.41 258.89C265.3 259.72 266.1 261.31 266.1 263.35C266.1 266.82 263.78 269.18 259.67 269.78V271.44C259.67 272.17 259.45 272.43 258.71 272.43H256.96C256.23 272.43 255.97 272.18 255.97 271.44V269.82C252.79 269.41 250.65 267.78 249.6 264.92C249.35 264.22 249.6 263.74 250.33 263.46L251.89 262.89C252.69 262.6 253.04 262.79 253.39 263.59C254.09 265.37 255.52 266.26 257.69 266.26C260.62 266.26 262.08 265.34 262.08 263.46C262.08 262.47 261.63 261.87 260.71 261.49C259.79 261.14 258.99 261.01 257.56 260.89C255.81 260.73 254.82 260.54 253.29 259.97C252.53 259.68 251.92 259.33 251.44 258.92C250.48 258.06 249.72 256.53 249.72 254.59C249.72 251.15 251.89 248.86 255.96 248.32V246.76C255.96 246.03 256.21 245.77 256.95 245.77H258.7L258.71 245.74Z" fill="#000001"/>
</g>
<path d="M155.81 109.63H78.22V119.34H155.81V109.63Z" fill="#E6E6E6"/>
<path d="M151.2 128.05H78.22V137.76H151.2V128.05Z" fill="#E6E6E6"/>
<path d="M135.31 149H78.22V158.71H135.31V149Z" fill="#E6E6E6"/>
<path d="M439.5 348.64H391.75V358.35H439.5V348.64Z" fill="#E6E6E6"/>
<path d="M429.11 369.6H391.75V379.31H429.11V369.6Z" fill="#E6E6E6"/>
<path d="M473.83 164.99H331V254.85H473.83V164.99Z" fill="#A5A5A5"/>
<g opacity="0.46">
<path d="M344.76 245.74V224.6L364.89 206.76L381.06 223.48L402.42 199.3L419.82 223.07L460.08 186.94V245.74H344.76Z" fill="white"/>
</g>
<g opacity="0.46">
<path d="M385.15 174.11H344.76V179.57H385.15V174.11Z" fill="white"/>
</g>
<g opacity="0.46">
<path d="M379.27 186.94H344.76V192.4H379.27V186.94Z" fill="white"/>
</g>
</svg>
