<svg width="500" height="500" viewBox="0 0 500 500" fill="none" xmlns="http://www.w3.org/2000/svg">
<path d="M92.75 223.45C92.75 223.45 109.49 144.67 151.62 144.67C193.75 144.67 216.16 268.5 113.68 281.97L92.75 223.44V223.45Z" fill="#FD9D97"/>
<g opacity="0.1">
<path d="M92.75 223.45C92.75 223.45 109.49 144.67 151.62 144.67C193.75 144.67 216.16 268.5 113.68 281.97L92.75 223.44V223.45Z" fill="#000001"/>
</g>
<path d="M390.24 59.75H128.12V404.93H390.24V59.75Z" fill="#BC5953"/>
<path d="M363.94 79.48H153.49V357.57H363.94V79.48Z" fill="white"/>
<path d="M317.9 40.21H203.28V88.88H317.9V40.21Z" fill="#E97B73"/>
<g opacity="0.21">
<path d="M299.74 204.22H247.75V215.68H299.74V204.22Z" fill="#BC5953"/>
</g>
<g opacity="0.21">
<path d="M330.11 227H247.75V238.46H330.11V227Z" fill="#BC5953"/>
</g>
<g opacity="0.21">
<path d="M299.74 277.93H247.75V289.39H299.74V277.93Z" fill="#BC5953"/>
</g>
<g opacity="0.21">
<path d="M299.74 300.71H247.75V312.17H299.74V300.71Z" fill="#BC5953"/>
</g>
<path d="M227.24 124.11H180.26V171.09H227.24V124.11Z" fill="#E97B73"/>
<path d="M227.24 197.39H180.26V244.37H227.24V197.39Z" fill="#E97B73"/>
<path d="M227.24 270.67H180.26V317.65H227.24V270.67Z" fill="#E97B73"/>
<path d="M201.6 158.02C201.6 158.02 201.55 158.02 201.53 158.02C200.76 158 200.05 157.61 199.61 156.97L194.08 148.89C193.33 147.79 193.61 146.3 194.71 145.54C195.81 144.79 197.3 145.07 198.05 146.17L201.71 151.51L211.16 139.25C211.97 138.2 213.48 138 214.54 138.81C215.59 139.62 215.79 141.13 214.98 142.19L203.5 157.07C203.04 157.66 202.34 158.01 201.59 158.01L201.6 158.02Z" fill="white"/>
<path d="M201.6 231.18C201.6 231.18 201.55 231.18 201.53 231.18C200.76 231.16 200.05 230.77 199.61 230.13L194.08 222.05C193.33 220.95 193.61 219.46 194.71 218.7C195.81 217.95 197.3 218.23 198.05 219.33L201.71 224.67L211.16 212.41C211.97 211.36 213.48 211.16 214.54 211.97C215.59 212.78 215.79 214.29 214.98 215.35L203.5 230.23C203.04 230.82 202.34 231.17 201.59 231.17L201.6 231.18Z" fill="white"/>
<g opacity="0.1">
<path d="M260.18 223.21L249.04 231.34L271.54 238.02L297.76 239.74C297.76 239.74 301.3 264.38 316.61 284.01C332.74 304.68 340.12 330.85 338.24 357C338.22 357.32 338.65 357.42 338.78 357.13L386.2 357.59L367.36 211.75L260.18 223.22V223.21Z" fill="#FD9D97"/>
</g>
<path d="M201.6 304.9C201.6 304.9 201.55 304.9 201.53 304.9C200.76 304.88 200.05 304.49 199.61 303.85L194.08 295.77C193.33 294.67 193.61 293.18 194.71 292.42C195.81 291.67 197.3 291.95 198.05 293.05L201.71 298.39L211.16 286.13C211.97 285.08 213.48 284.88 214.54 285.69C215.59 286.5 215.79 288.01 214.98 289.07L203.5 303.95C203.04 304.54 202.34 304.89 201.59 304.89L201.6 304.9Z" fill="white"/>
<path d="M125.75 194.2C125.75 194.2 158.27 160.94 172.31 163.9C183.9 166.34 183.91 189.4 158.66 208.61C148.3 216.49 141.77 228.29 140.9 241.28C140.18 252.02 136.64 264.78 125.74 274.43C102.83 294.72 85.8299 277.04 88.0499 249.66C90.2699 222.28 91.7499 214.15 125.74 194.2H125.75Z" fill="#FD9D97"/>
<path d="M138.4 270.05L126.18 439.23L25.8999 419.99L76.3199 251.24L138.4 270.05Z" fill="#E97B73"/>
<g opacity="0.21">
<path d="M299.74 129.28H247.75V140.74H299.74V129.28Z" fill="#BC5953"/>
</g>
<g opacity="0.21">
<path d="M330.11 152.06H247.75V163.52H330.11V152.06Z" fill="#BC5953"/>
</g>
<g opacity="0.1">
<path d="M87.0298 431.72L108.76 261.07L138.4 270.05L126.18 439.23L87.0298 431.72Z" fill="#000001"/>
</g>
<path d="M266.39 208.53L240.39 219.95L267.53 227.29L266.39 208.53Z" fill="#E97B73"/>
<path d="M387.66 213.4C387.66 213.4 372.07 181.48 329.63 181.9C296.37 182.23 304.08 201.76 319.6 207.37C335.12 212.99 365 213.06 352.84 237.66C342.11 259.34 327.51 215.93 311.13 210.68C294.75 205.43 289.21 224.25 304.72 242.11C320.23 259.97 338.97 292.62 367.21 284.51C395.45 276.4 401.54 243.98 387.66 213.39V213.4Z" fill="#FD9D97"/>
<path d="M431.442 217.32L430.301 198.554L266.374 208.523L267.515 227.288L431.442 217.32Z" fill="#E97B73"/>
<path d="M350.92 285.16L379.75 459.79L474.1 428.59L400.35 257.4L350.92 285.16Z" fill="#E97B73"/>
<g opacity="0.1">
<path d="M350.92 285.16L373.8 272.31L421.49 445.99L379.75 459.79L350.92 285.16Z" fill="#000001"/>
</g>
</svg>
