<svg width="473" height="417" viewBox="0 0 473 417" fill="none" xmlns="http://www.w3.org/2000/svg">
<path d="M314.16 125.16C314.16 125.16 346.66 186.67 354.34 252.31C362.02 317.95 341.88 363.26 230.75 355.77C119.63 348.28 92.7602 302.78 113.09 242.29C133.43 181.79 222.32 108.89 222.32 108.89L314.15 125.16H314.16Z" fill="#E97B73"/>
<path d="M314.16 125.16C314.16 125.16 371.13 89.37 356.15 63.4C341.17 37.42 304.75 43.77 285.87 34.47C266.99 25.18 165.7 8.77 222.33 108.89L314.16 125.16Z" fill="#E97B73"/>
<path d="M319.25 131.75C319.08 131.73 318.9 131.69 318.73 131.63C318.18 131.45 263.12 113.25 216.01 108.57C215.98 108.57 215.94 108.57 215.91 108.56C214.41 108.36 213.32 107 213.47 105.47C213.62 103.91 215.01 102.78 216.57 102.93C264.34 107.69 319.96 126.07 320.52 126.26C322 126.75 322.81 128.36 322.31 129.84C321.87 131.15 320.57 131.93 319.25 131.75Z" fill="#FD9D97"/>
<path d="M186.08 179.79C179.73 179.79 172.87 176.71 165.62 170.57C155.38 161.91 151.25 153.09 153.32 144.37C157.31 127.56 184.27 115.94 201.67 110.1C182.59 108.02 152.61 102.68 148.07 89.5C146.02 83.55 149.03 77.07 157 70.24C166.32 62.25 175.74 59.47 185 61.98C208.23 68.27 221.54 105.97 222.09 107.57C222.22 107.94 222.27 108.33 222.24 108.72C222.04 111.15 217.18 168.45 193.46 178.32C191.08 179.31 188.62 179.8 186.08 179.8V179.79ZM216.28 111.62C200.3 115.7 162.87 128.63 158.83 145.68C157.29 152.16 160.81 159.08 169.28 166.25C177.69 173.36 185.09 175.67 191.29 173.08C207.25 166.44 214.4 129.19 216.28 111.61V111.62ZM178.46 66.76C172.68 66.76 166.72 69.36 160.69 74.53C154.66 79.7 152.21 84.11 153.43 87.65C157.16 98.5 192.48 104.29 215.25 105.56C211.32 96.03 199.87 71.85 183.52 67.43C181.85 66.98 180.16 66.75 178.46 66.75V66.76Z" fill="#FD9D97"/>
<path d="M356.24 62.26C356.24 62.26 367.07 82.85 343.99 85.65C320.91 88.45 301.97 67.24 283.64 71.95C265.31 76.66 211.96 85.28 205.15 59.94C198.33 34.59 230.95 22.59 252.54 25.7C274.13 28.81 350.31 38.1 356.24 62.26Z" fill="#FD9D97"/>
<path opacity="0.03" d="M236.4 416.52C366.96 416.52 472.8 393.888 472.8 365.97C472.8 338.052 366.96 315.42 236.4 315.42C105.84 315.42 0 338.052 0 365.97C0 393.888 105.84 416.52 236.4 416.52Z" fill="#000001"/>
<path d="M303.13 305.91L303.09 329.02C303.07 339.49 273.87 347.94 237.86 347.88C201.85 347.82 172.68 339.28 172.7 328.8L172.74 305.69L303.13 305.91Z" fill="#FD9D97"/>
<path d="M303.09 333.76L303.05 356.87C303.03 367.34 273.83 375.79 237.82 375.73C201.81 375.67 172.64 367.13 172.66 356.65L172.7 333.54L303.09 333.76Z" fill="#FD9D97"/>
<path opacity="0.08" d="M303.09 333.76L303.05 356.87C303.03 367.34 273.83 375.79 237.82 375.73C201.81 375.67 172.64 367.13 172.66 356.65L172.7 333.54L303.09 333.76Z" fill="#000001"/>
<path d="M301.847 333.017C301.865 322.64 272.962 314.177 237.29 314.114C201.618 314.052 172.686 322.414 172.668 332.792C172.649 343.169 201.553 351.632 237.225 351.694C272.897 351.756 301.829 343.394 301.847 333.017Z" fill="#FD9D97"/>
<path opacity="0.08" d="M303.13 305.91L303.09 329.02C303.07 339.49 273.87 347.94 237.86 347.88C201.85 347.82 172.68 339.28 172.7 328.8L172.74 305.69L303.13 305.91Z" fill="#000001"/>
<path d="M298.44 278.28L298.4 301.39C298.38 311.86 269.18 320.31 233.17 320.25C197.16 320.19 167.99 311.65 168.01 301.17L168.05 278.06L298.44 278.28Z" fill="#FD9D97"/>
<path d="M303.23 250.43L303.19 273.54C303.17 284.01 273.97 292.46 237.96 292.4C201.95 292.34 172.78 283.8 172.8 273.32L172.84 250.21L303.23 250.43Z" fill="#FD9D97"/>
<path d="M301.907 305.419C301.926 295.041 273.022 286.578 237.35 286.516C201.678 286.454 172.746 294.816 172.728 305.193C172.71 315.571 201.613 324.034 237.285 324.096C272.957 324.158 301.889 315.796 301.907 305.419Z" fill="#FD9D97"/>
<path opacity="0.08" d="M298.44 278.28L298.4 301.39C298.38 311.86 269.18 320.31 233.17 320.25C197.16 320.19 167.99 311.65 168.01 301.17L168.05 278.06L298.44 278.28Z" fill="#000001"/>
<path d="M297.249 278.051C297.267 267.674 268.364 259.211 232.692 259.148C197.02 259.086 168.088 267.448 168.069 277.825C168.051 288.203 196.954 296.666 232.627 296.728C268.299 296.79 297.231 288.428 297.249 278.051Z" fill="#FD9D97"/>
<path opacity="0.08" d="M303.23 250.43L303.19 273.54C303.17 284.01 273.97 292.46 237.96 292.4C201.95 292.34 172.78 283.8 172.8 273.32L172.84 250.21L303.23 250.43Z" fill="#000001"/>
<path d="M303.239 250.454C303.257 240.077 274.072 231.613 238.052 231.55C202.032 231.487 172.817 239.849 172.799 250.226C172.781 260.604 201.966 269.067 237.986 269.13C274.006 269.193 303.221 260.831 303.239 250.454Z" fill="#FD9D97"/>
<path d="M454.58 301.21L454.54 327.08C454.52 338.8 421.83 348.25 381.53 348.19C341.23 348.12 308.57 338.56 308.59 326.84L308.63 300.97L454.58 301.22V301.21Z" fill="#FD9D97"/>
<path d="M454.53 332.39L454.49 358.26C454.47 369.98 421.78 379.43 381.48 379.37C341.18 379.3 308.52 369.74 308.54 358.02L308.58 332.15L454.53 332.4V332.39Z" fill="#FD9D97"/>
<path opacity="0.08" d="M454.53 332.39L454.49 358.26C454.47 369.98 421.78 379.43 381.48 379.37C341.18 379.3 308.52 369.74 308.54 358.02L308.58 332.15L454.53 332.4V332.39Z" fill="#000001"/>
<path d="M453.158 331.548C453.178 319.934 420.825 310.462 380.895 310.392C340.965 310.322 308.578 319.681 308.558 331.296C308.538 342.91 340.891 352.382 380.821 352.452C420.751 352.522 453.138 343.163 453.158 331.548Z" fill="#FD9D97"/>
<path opacity="0.08" d="M454.58 301.21L454.54 327.08C454.52 338.8 421.83 348.25 381.53 348.19C341.23 348.12 308.57 338.56 308.59 326.84L308.63 300.97L454.58 301.22V301.21Z" fill="#000001"/>
<path d="M449.32 270.29L449.28 296.16C449.26 307.88 416.57 317.33 376.27 317.27C335.97 317.2 303.31 307.64 303.33 295.92L303.37 270.05L449.32 270.3V270.29Z" fill="#FD9D97"/>
<path d="M454.68 239.12L454.64 264.99C454.62 276.71 421.93 286.16 381.63 286.1C341.33 286.03 308.67 276.47 308.69 264.75L308.73 238.88L454.68 239.13V239.12Z" fill="#FD9D97"/>
<path d="M453.218 300.664C453.238 289.05 420.885 279.578 380.955 279.508C341.025 279.438 308.639 288.797 308.618 300.412C308.598 312.026 340.951 321.498 380.881 321.568C420.812 321.638 453.198 312.279 453.218 300.664Z" fill="#FD9D97"/>
<path opacity="0.08" d="M449.32 270.29L449.28 296.16C449.26 307.88 416.57 317.33 376.27 317.27C335.97 317.2 303.31 307.64 303.33 295.92L303.37 270.05L449.32 270.3V270.29Z" fill="#000001"/>
<path d="M448.009 270.021C448.029 258.406 415.676 248.934 375.746 248.864C335.816 248.795 303.43 258.154 303.409 269.768C303.389 281.383 335.742 290.855 375.672 290.924C415.603 290.994 447.989 281.635 448.009 270.021Z" fill="#FD9D97"/>
<path opacity="0.08" d="M454.68 239.12L454.64 264.99C454.62 276.71 421.93 286.16 381.63 286.1C341.33 286.03 308.67 276.47 308.69 264.75L308.73 238.88L454.68 239.13V239.12Z" fill="#000001"/>
<path d="M454.71 239.138C454.73 227.523 422.063 218.051 381.747 217.981C341.43 217.91 308.73 227.269 308.71 238.883C308.69 250.498 341.357 259.97 381.673 260.04C421.99 260.111 454.69 250.752 454.71 239.138Z" fill="#FD9D97"/>
<path d="M326.81 206.15L326.85 232.02C326.87 243.74 359.56 253.19 399.86 253.13C440.16 253.06 472.82 243.5 472.8 231.78L472.76 205.91L326.81 206.16V206.15Z" fill="#FD9D97"/>
<path d="M321.45 174.98L321.49 200.85C321.51 212.57 354.2 222.02 394.5 221.96C434.8 221.89 467.46 212.33 467.44 200.61L467.4 174.74L321.45 174.99V174.98Z" fill="#FD9D97"/>
<path opacity="0.08" d="M326.81 206.15L326.85 232.02C326.87 243.74 359.56 253.19 399.86 253.13C440.16 253.06 472.82 243.5 472.8 231.78L472.76 205.91L326.81 206.16V206.15Z" fill="#000001"/>
<path d="M400.508 226.747C440.438 226.677 472.791 217.205 472.771 205.591C472.751 193.976 440.365 184.617 400.435 184.687C360.505 184.757 328.151 194.229 328.171 205.843C328.192 217.458 360.578 226.817 400.508 226.747Z" fill="#FD9D97"/>
<path opacity="0.08" d="M321.45 174.98L321.49 200.85C321.51 212.57 354.2 222.02 394.5 221.96C434.8 221.89 467.46 212.33 467.44 200.61L467.4 174.74L321.45 174.99V174.98Z" fill="#000001"/>
<path d="M394.504 195.867C434.821 195.797 467.488 186.325 467.468 174.71C467.447 163.096 434.748 153.737 394.431 153.808C354.114 153.878 321.448 163.35 321.468 174.965C321.488 186.579 354.188 195.938 394.504 195.867Z" fill="#FD9D97"/>
<path d="M160.99 299.28L160.95 325.15C160.93 336.87 128.24 346.32 87.94 346.26C47.64 346.19 14.98 336.63 15 324.91L15.04 299.04L160.99 299.29V299.28Z" fill="#FD9D97"/>
<path d="M160.93 330.46L160.89 356.33C160.87 368.05 128.18 377.5 87.8804 377.44C47.5804 377.37 14.9204 367.81 14.9404 356.09L14.9804 330.22L160.93 330.47V330.46Z" fill="#FD9D97"/>
<path opacity="0.08" d="M160.93 330.46L160.89 356.33C160.87 368.05 128.18 377.5 87.8804 377.44C47.5804 377.37 14.9204 367.81 14.9404 356.09L14.9804 330.22L160.93 330.47V330.46Z" fill="#000001"/>
<path d="M159.546 329.624C159.566 318.01 127.213 308.538 87.2825 308.468C47.3523 308.398 14.9662 317.757 14.9459 329.372C14.9256 340.986 47.2789 350.458 87.2091 350.528C127.139 350.598 159.525 341.239 159.546 329.624Z" fill="#FD9D97"/>
<path opacity="0.08" d="M160.99 299.28L160.95 325.15C160.93 336.87 128.24 346.32 87.94 346.26C47.64 346.19 14.98 336.63 15 324.91L15.04 299.04L160.99 299.29V299.28Z" fill="#000001"/>
<path d="M155.73 268.35L155.69 294.22C155.67 305.94 122.98 315.39 82.6802 315.33C42.3802 315.26 9.72024 305.7 9.74024 293.98L9.78024 268.11L155.73 268.36V268.35Z" fill="#FD9D97"/>
<path d="M161.09 237.18L161.05 263.05C161.03 274.77 128.34 284.22 88.0401 284.16C47.7401 284.09 15.0801 274.53 15.1001 262.81L15.1401 236.94L161.09 237.19V237.18Z" fill="#FD9D97"/>
<path d="M159.595 298.73C159.616 287.116 127.262 277.644 87.3323 277.574C47.4022 277.504 15.016 286.863 14.9957 298.478C14.9754 310.092 47.3288 319.564 87.2589 319.634C127.189 319.704 159.575 310.345 159.595 298.73Z" fill="#FD9D97"/>
<path opacity="0.08" d="M155.73 268.35L155.69 294.22C155.67 305.94 122.98 315.39 82.6802 315.33C42.3802 315.26 9.72024 305.7 9.74024 293.98L9.78024 268.11L155.73 268.36V268.35Z" fill="#000001"/>
<path d="M154.386 268.087C154.407 256.472 122.053 247 82.1233 246.931C42.1932 246.861 9.80698 256.22 9.7867 267.834C9.76643 279.449 42.1198 288.921 82.0499 288.991C121.98 289.06 154.366 279.701 154.386 268.087Z" fill="#FD9D97"/>
<path opacity="0.08" d="M161.09 237.18L161.05 263.05C161.03 274.77 128.34 284.22 88.0401 284.16C47.7401 284.09 15.0801 274.53 15.1001 262.81L15.1401 236.94L161.09 237.19V237.18Z" fill="#000001"/>
<path opacity="0.08" d="M158.21 382.28C188.127 382.28 212.38 358.027 212.38 328.11C212.38 298.193 188.127 273.94 158.21 273.94C128.293 273.94 104.04 298.193 104.04 328.11C104.04 358.027 128.293 382.28 158.21 382.28Z" fill="#000001"/>
<path opacity="0.08" d="M122.17 273.87C122.17 273.87 65.4604 291.18 74.5704 377.06C74.5704 377.06 111.54 378.31 129.1 373.8C144.79 369.77 122.18 273.87 122.18 273.87H122.17Z" fill="#000001"/>
<path d="M161.097 237.204C161.117 225.59 128.451 216.117 88.1338 216.047C47.8171 215.976 15.1175 225.335 15.0973 236.949C15.077 248.564 47.7437 258.036 88.0604 258.107C128.377 258.177 161.077 248.819 161.097 237.204Z" fill="#FD9D97"/>
<path d="M158.21 382.28C188.127 382.28 212.38 358.027 212.38 328.11C212.38 298.193 188.127 273.94 158.21 273.94C128.293 273.94 104.04 298.193 104.04 328.11C104.04 358.027 128.293 382.28 158.21 382.28Z" fill="#FD9D97"/>
<g opacity="0.08">
<path d="M160.85 365.96C190.767 365.96 215.02 341.707 215.02 311.79C215.02 281.873 190.767 257.62 160.85 257.62C130.933 257.62 106.68 281.873 106.68 311.79C106.68 341.707 130.933 365.96 160.85 365.96Z" fill="#000001"/>
</g>
<path opacity="0.08" d="M158.21 382.28C188.127 382.28 212.38 358.027 212.38 328.11C212.38 298.193 188.127 273.94 158.21 273.94C128.293 273.94 104.04 298.193 104.04 328.11C104.04 358.027 128.293 382.28 158.21 382.28Z" fill="#000001"/>
<path d="M160.85 365.96C190.767 365.96 215.02 341.707 215.02 311.79C215.02 281.873 190.767 257.62 160.85 257.62C130.933 257.62 106.68 281.873 106.68 311.79C106.68 341.707 130.933 365.96 160.85 365.96Z" fill="#FD9D97"/>
<path d="M162.6 287.56C164.13 287.56 164.6 288.09 164.6 289.63V292.89C170.73 293.76 174.26 296.82 176.86 302.15C177.66 303.75 177.33 304.61 175.53 305.41L172.27 306.88C170.74 307.61 170 307.28 169.14 305.68C167.34 302.22 165.14 300.55 160.61 300.55C154.95 300.55 152.35 302.22 152.35 306.01C152.35 308.47 154.61 310.01 156.95 310.47C158.08 310.74 159.68 311 161.75 311.2C165.48 311.53 167.35 311.8 170.61 312.93C172.28 313.53 173.54 314.2 174.54 315.06C176.4 316.79 178.07 320.12 178.07 324.39C178.07 331.65 173.21 336.58 164.61 337.85V341.31C164.61 342.84 164.14 343.37 162.61 343.37H158.95C157.42 343.37 156.88 342.84 156.88 341.31V337.91C150.22 337.04 145.76 333.65 143.56 327.65C143.03 326.19 143.56 325.19 145.09 324.59L148.35 323.39C150.02 322.79 150.75 323.19 151.48 324.86C152.94 328.59 155.94 330.46 160.47 330.46C166.6 330.46 169.66 328.53 169.66 324.6C169.66 322.53 168.73 321.27 166.8 320.47C164.87 319.74 163.2 319.47 160.21 319.2C156.55 318.87 154.48 318.47 151.28 317.27C149.68 316.67 148.42 315.94 147.42 315.07C145.42 313.27 143.82 310.07 143.82 306.01C143.82 298.82 148.35 294.02 156.88 292.89V289.63C156.88 288.1 157.41 287.56 158.95 287.56H162.61H162.6Z" fill="white"/>
<path d="M103.2 75.33C103.2 75.33 99.4101 89.68 88.1201 96.49C88.1201 96.49 99.6901 94.71 109.59 108.92C109.59 108.92 112.62 96.1 121.99 87.74C121.99 87.74 107.94 87.58 103.2 75.34V75.33Z" fill="#FFA9A3"/>
<path d="M415.35 69.97C415.35 69.97 403.53 78.95 390.44 77.36C390.44 77.36 400.66 83.08 399.71 100.37C399.71 100.37 409.99 92.13 422.52 91.31C422.52 91.31 411.55 82.54 415.35 69.97Z" fill="#FFA9A3"/>
<path d="M383.2 0C383.2 0 374.04 6.96 363.9 5.72C363.9 5.72 371.82 10.15 371.08 23.55C371.08 23.55 379.04 17.16 388.76 16.53C388.76 16.53 380.26 9.73 383.2 0Z" fill="#FFA9A3"/>
<path opacity="0.58" d="M64.82 193.64C64.82 193.64 35.81 185.72 29.5 158.72C29.5 158.72 74.45 149.63 75.73 196.03L64.82 193.64Z" fill="#FD9D97"/>
<path opacity="0.73" d="M68.3799 190.76C68.3799 190.76 48.1099 158.72 65.9499 128.76C65.9499 128.76 100.13 150.47 84.9399 190.83L68.3799 190.76Z" fill="#FD9D97"/>
<path d="M73.6001 190.78C73.6001 190.78 84.3101 156.94 116.68 150.53C116.68 150.53 122.75 172.5 95.7201 190.87L73.6001 190.78Z" fill="#FD9D97"/>
<path d="M52.5601 190.02L58.4401 230.26L95.4801 230.41L100.94 190.23L52.5601 190.02Z" fill="#E97B73"/>
</svg>
